<svg xmlns="http://www.w3.org/2000/svg" viewBox="0 0 507.62 71.92"><defs><style>.cls-1{fill:#3dcd58;}.cls-2{fill:#fff;}</style></defs><g id="Layer_2" data-name="Layer 2"><g id="Layer_1-2" data-name="Layer 1"><path class="cls-1" d="M0,71.92H494.17V1.18H0Z"/><rect class="cls-2" x="424.4" y="5.14" width="65.16" height="62.82"/><polygon class="cls-1" points="457.79 56.97 436.32 56.97 436.32 16.54 449.75 16.54 449.75 47.52 457.79 47.52 457.79 56.97"/><polygon class="cls-1" points="483.5 56.94 466.39 56.94 451.51 33.82 467.13 16.54 483.5 16.54 467.2 33.82 483.5 56.94"/><rect class="cls-2" x="201.25" y="22.68" width="7.05" height="22.95"/><polygon class="cls-2" points="161.32 32.3 172.83 32.3 161.32 41.88 161.32 45.63 180.69 45.63 180.69 41.92 169.15 41.92 180.73 32.3 180.73 28.86 161.32 28.86 161.32 32.3"/><rect class="cls-2" x="129.8" y="28.86" width="6.68" height="16.74"/><polygon class="cls-2" points="129.94 21.63 129.94 25.68 136.58 25.68 136.58 21.57 129.94 21.57 129.94 21.63"/><path class="cls-2" d="M110,29.09V45.63h6.61V32.3c1.49-.14,2.87-.1,5.44-.1l4,.17.11-3.51c-1.42,0-7.16-.07-9.59-.07C113.4,28.86,110,29.09,110,29.09Z"/><path class="cls-2" d="M73.14,30.88c-1.79-2.12-4.83-2.33-9-2.43A92.14,92.14,0,0,0,52.78,29v3.13a81.58,81.58,0,0,1,8.75-.84c3,0,5.63.51,5.73,2.84l0,1.31s-3,0-5.23,0c-7.49,0-10.8,1.14-10.8,5,0,5.34,6.07,5.51,11.54,5.51,3.71,0,7.39-.24,11.1-.48l0-5.3C73.88,35.84,74.11,32.06,73.14,30.88ZM67.3,42.93c-.85.07-3.07.2-4.63.2-2.09,0-4.92,0-4.92-2.39s2.19-2.64,4.35-2.64l5.2,0Z"/><polygon class="cls-2" points="32.37 22.68 25.35 22.68 25.35 45.63 47.18 45.63 47.18 41.48 32.37 41.48 32.37 22.68"/><path class="cls-2" d="M96.39,43a31.8,31.8,0,0,1-5.77.14c-3.45-.27-3.14-2.77-3.14-4.86V28.82H80.9V40.33C80.9,44.38,83,46,89.84,46c3.48,0,7-.13,7-.13L103,45.6V28.82H96.39Z"/><path class="cls-2" d="M150,22.68l-6.41,1.38V40.5c0,3.14.74,5.1,5,5.1h7.29V42.46h-3.44c-1.65,0-2.43-.64-2.43-2.33v-7.9h5.87V28.82h-5.9Z"/><path class="cls-2" d="M309.85,28.55s-3.44-.27-5.94-.27c-9.61,0-10.86,5.1-10.86,8.24v1.11c0,7.66,6.24,8.57,12.25,8.57,4.55,0,11.17-.6,11.17-.6V21.53h-6.62Zm0,14.11c-.67,0-2.83.27-4.62.27-3.17,0-5.53-1-5.53-4.79V36.38c0-3.81,2.36-4.79,5.53-4.79,1.79,0,3.95.2,4.62.27Z"/><path class="cls-2" d="M373.37,38.51v-.2c0-7.19-1.72-9.79-11.58-9.79-7.72,0-11.67,1.62-11.67,7.56v1.75c0,5.91,2.39,8.17,13.36,8.17a74,74,0,0,0,8.2-.44v-3a57.11,57.11,0,0,1-8.16.58c-3.24,0-6.59-.24-6.55-4v-.64Zm-16.44-2.8V34.53c0-2.23,1.56-3.48,5-3.48,3.57,0,5,1.25,5,3.48v1.18Z"/><path class="cls-2" d="M335.74,35.2c-4.39-.34-6-.37-6-2,0-2.16,3.85-1.85,6.38-1.85,2.33,0,6.82.44,6.82.44v-3s-4.79-.37-8.64-.37c-8.1,0-11.24,1.15-11.24,5.13,0,2.16,1.55,5.13,9.08,5.4,3.14.1,5,.41,5,2,0,1.85-2.73,2-5.7,2-3.24,0-8.27-.61-8.27-.61v3s6.41.61,9.82.61c4,0,11.07,0,11.07-5.57C344,37.5,341.92,35.64,335.74,35.2Z"/><polygon class="cls-2" points="231.82 22.68 222.27 22.68 208.91 33.58 221.67 45.63 231.93 45.63 218.02 33.58 231.82 22.68"/><path class="cls-2" d="M392.81,28.45c-3.48,0-7,.14-7,.14l-6.11.27V45.63h6.55V31.49a37,37,0,0,1,5.8-.14c3.41.27,3.14,2.77,3.14,4.86V45.6h6.58V34.12C401.75,30.11,399.66,28.45,392.81,28.45Z"/><path class="cls-2" d="M280,43a31.8,31.8,0,0,1-5.77.14c-3.44-.27-3.17-2.73-3.17-4.86V28.82h-6.55V40.37c0,4,2.06,5.63,8.94,5.63,3.48,0,7-.13,7-.13l6.11-.24V28.86H280Z"/><path class="cls-2" d="M248.6,28.42c-3.48,0-7,.17-7,.17l-6.08.23V45.6h6.55V31.49a34.73,34.73,0,0,1,5.77-.17c3.44.3,3.17,2.77,3.17,4.89v9.42h6.55V34.09C257.54,30.07,255.45,28.42,248.6,28.42Z"/><path class="cls-1" d="M502.89.79A3.93,3.93,0,1,1,499,4.71,3.92,3.92,0,0,1,502.89.79m0-.79a4.72,4.72,0,1,0,4.73,4.71A4.71,4.71,0,0,0,502.89,0"/><path class="cls-1" d="M504.63,6.34c-.63-1-.88-1.17-1.18-1.28a1.46,1.46,0,0,0,1.45-1.44,1.28,1.28,0,0,0-.49-1,2.61,2.61,0,0,0-1.68-.36H501V7.32h.82V5.17h.48c.65,0,.9.26,1.52,1.36l.45.79h1ZM502.8,4.47h-1V3h.93c.5,0,1.3,0,1.3.75S503.18,4.47,502.8,4.47Z"/></g></g></svg>