<?xml version="1.0" encoding="utf-8"?>
<!-- Generator: Adobe Illustrator 23.0.1, SVG Export Plug-In . SVG Version: 6.00 Build 0)  -->
<svg version="1.1" id="Layer_1" xmlns="http://www.w3.org/2000/svg" xmlns:xlink="http://www.w3.org/1999/xlink" x="0px" y="0px"
	 viewBox="0 0 270 123" style="enable-background:new 0 0 270 123;" xml:space="preserve">
<style type="text/css">
	.st0{fill:none;}
	.st1{fill:#003361;}
</style>
<rect class="st0" width="270" height="123"/>
<g>
	<path class="st1" d="M74,81V45h37.49v7.95H86.13V59h22.2v7.95h-22.2v6.09h25.36V81H74z"/>
	<path class="st1" d="M152.71,81l-9.54-11.4L133.63,81h-15.23l17.13-18.61L119.54,45h15.23l8.39,10.18L151.56,45h15.17l-15.98,17.39
		L167.89,81H152.71z"/>
	<path class="st1" d="M232.5,81V45H270v7.95h-25.37v6.06h22.21v7.95h-22.21v6.09H270V81H232.5z"/>
	<path class="st1" d="M47.82,45v26.93c0,0.64-0.57,1.12-1.21,1.12h-9.63c-0.69,0-1.21-0.48-1.21-1.12V45.87H24.24v26.06
		c0,0.64-0.58,1.12-1.21,1.12h-9.63c-0.69,0-1.22-0.48-1.22-1.12V45H0v31.8C0,79.14,2.02,81,4.56,81h19.71
		c3.59,0,5.63-3.4,5.63-5.43h0.21c0,1.85,1.87,5.43,5.63,5.43h19.71c2.54,0,4.56-1.86,4.56-4.2V45H47.82z"/>
</g>
<path class="st1" d="M225.33,37h-5.12l-7.87,8h-31.5c-2.52,0-4.53,1.85-4.53,4.17V74.9l12.09-12.3v-8.57c0-0.58,0.52-1.11,1.21-1.11
	h13.81c0.63,0,1.21,0.53,1.21,1.11v4.02L225.33,37z"/>
<path class="st1" d="M167.67,89h5.15l7.88-8h31.48c2.52,0,4.53-1.86,4.53-4.18V51.07l-12.09,12.3v8.59c0,0.63-0.58,1.11-1.21,1.11
	h-13.81c-0.69,0-1.21-0.48-1.21-1.11V67.8L167.67,89z"/>
</svg>
